<?xml version="1.0" standalone="no"?>
<!DOCTYPE svg PUBLIC "-//W3C//DTD SVG 20010904//EN"
 "http://www.w3.org/TR/2001/REC-SVG-20010904/DTD/svg10.dtd">
<svg version="1.0" xmlns="http://www.w3.org/2000/svg"
 width="1080.000000pt" height="1080.000000pt" viewBox="0 0 1080.000000 1080.000000"
 preserveAspectRatio="xMidYMid meet">
<metadata>
Created by potrace 1.14, written by Peter Selinger 2001-2017
</metadata>
<g transform="translate(0.000000,1080.000000) scale(0.100000,-0.100000)"
fill="#000000" stroke="none">
<path d="M4825 10562 c-3 -4 -21 -8 -38 -9 -45 -4 -102 -11 -104 -13 -2 -2
-12 -4 -23 -5 -11 -1 -23 -4 -27 -5 -5 -1 -11 -2 -15 -1 -4 0 -47 -9 -95 -20
-49 -12 -94 -21 -100 -22 -7 0 -13 -3 -13 -6 0 -3 -12 -7 -26 -8 -15 0 -36 -5
-48 -11 -11 -5 -47 -18 -78 -28 -32 -10 -58 -21 -58 -24 0 -3 -9 -7 -20 -8
-43 -4 -50 -6 -50 -13 0 -3 -10 -10 -22 -14 -26 -8 -23 -7 -63 -24 -34 -15
-52 -23 -80 -39 -11 -6 -34 -16 -52 -23 -17 -7 -29 -17 -27 -21 3 -4 -1 -8 -8
-8 -19 0 -68 -23 -68 -32 0 -5 -7 -8 -15 -8 -8 0 -15 -4 -15 -8 0 -5 -12 -15
-27 -23 -44 -22 -203 -140 -203 -150 0 -5 -5 -9 -11 -9 -6 0 -22 -10 -36 -22
-69 -64 -172 -170 -203 -208 -19 -24 -43 -52 -52 -62 -10 -10 -18 -20 -18 -23
0 -5 -26 -37 -50 -63 -8 -9 -15 -19 -15 -23 0 -5 -8 -17 -17 -28 -9 -11 -22
-30 -29 -43 -6 -13 -15 -25 -19 -28 -11 -7 -44 -74 -42 -82 1 -5 -2 -8 -6 -8
-10 0 -37 -50 -34 -62 1 -5 -2 -8 -6 -8 -7 0 -33 -42 -37 -60 0 -3 -8 -18 -17
-35 -25 -47 -98 -226 -98 -240 0 -7 -4 -15 -9 -17 -9 -3 -83 -221 -84 -245 0
-7 -4 -13 -9 -13 -5 0 -6 -4 -3 -10 3 -5 2 -10 -2 -10 -5 0 -9 -8 -10 -17 -1
-10 -6 -36 -13 -58 -6 -22 -13 -47 -15 -55 -2 -8 -4 -15 -5 -15 -2 0 -10 -36
-12 -57 -1 -10 -5 -18 -8 -18 -4 0 -7 -6 -8 -12 -1 -19 -10 -72 -13 -78 -1 -3
-3 -9 -4 -15 -1 -5 -5 -17 -8 -25 -6 -16 -24 -104 -32 -155 -4 -28 -7 -45 -20
-105 -12 -54 -19 -107 -20 -147 0 -22 -3 -39 -7 -36 -5 2 -8 -11 -9 -29 0 -18
-2 -42 -4 -53 -3 -11 -7 -40 -10 -65 -9 -76 -14 -113 -21 -170 -4 -30 -8 -66
-10 -80 -9 -83 -13 -119 -19 -148 -3 -19 -8 -57 -11 -85 -7 -70 -12 -102 -14
-102 -1 0 -3 -11 -5 -25 -9 -90 -23 -198 -31 -240 -3 -14 -7 -43 -9 -65 -2
-22 -6 -51 -8 -65 -3 -14 -8 -47 -11 -75 -8 -68 -16 -118 -21 -132 -2 -7 0
-15 6 -19 7 -4 7 -10 0 -18 -5 -6 -12 -32 -15 -56 -10 -77 -16 -119 -22 -157
-3 -21 -7 -54 -9 -73 -2 -19 -4 -35 -5 -35 -2 0 -3 -9 -14 -79 -3 -21 -8 -57
-12 -80 -4 -22 -8 -54 -10 -71 -1 -16 -3 -30 -4 -30 -2 0 -4 -11 -6 -25 -2
-14 -5 -36 -8 -50 -9 -49 -16 -90 -21 -120 -3 -16 -7 -43 -10 -60 -3 -16 -7
-43 -10 -60 -3 -16 -7 -42 -10 -57 -2 -16 -7 -44 -11 -63 -3 -19 -8 -48 -10
-65 -3 -31 -10 -76 -18 -121 -3 -15 -7 -29 -10 -32 -3 -2 -1 -14 5 -25 9 -15
8 -18 -1 -12 -10 6 -12 1 -8 -18 3 -15 1 -24 -3 -21 -5 3 -9 -5 -8 -18 0 -13
-3 -41 -7 -63 -4 -22 -7 -55 -8 -72 0 -18 -4 -33 -8 -33 -4 0 -7 -8 -6 -17 0
-16 -5 -48 -26 -158 -6 -30 -11 -55 -21 -97 -8 -31 -16 -78 -20 -108 -2 -14
-4 -25 -5 -25 -1 0 -4 -16 -7 -35 -2 -19 -9 -43 -15 -53 -8 -15 -7 -18 4 -11
11 6 11 5 0 -8 -7 -9 -14 -33 -15 -52 -1 -20 -4 -36 -7 -36 -4 0 -6 -10 -7
-22 -1 -29 -10 -70 -28 -129 -10 -36 -10 -50 -2 -59 9 -10 9 -11 0 -6 -8 5
-13 1 -14 -11 -1 -18 -2 -25 -14 -73 -4 -14 -8 -36 -10 -50 -2 -14 -4 -26 -5
-27 -3 -4 -5 -12 -15 -58 -4 -22 -10 -49 -12 -60 -3 -11 -6 -29 -7 -41 -1 -11
-5 -24 -8 -30 -5 -7 -26 -100 -32 -139 -1 -5 -5 -15 -8 -21 -4 -6 -10 -26 -13
-45 -11 -66 -48 -204 -62 -232 -8 -15 -36 -41 -63 -58 -28 -17 -50 -35 -50
-40 0 -5 -6 -9 -14 -9 -7 0 -25 -9 -38 -20 -14 -10 -28 -16 -32 -13 -3 3 -6 2
-6 -3 0 -6 -18 -20 -40 -33 -22 -12 -40 -26 -40 -32 0 -5 -7 -9 -16 -9 -9 0
-38 -18 -64 -40 -26 -22 -52 -40 -58 -40 -6 0 -26 -14 -44 -30 -18 -17 -38
-30 -46 -30 -7 0 -10 -5 -7 -10 3 -5 2 -10 -3 -10 -15 0 -87 -61 -84 -72 1 -5
-1 -7 -6 -4 -12 7 -23 -3 -82 -79 -30 -38 -57 -72 -60 -75 -9 -9 -45 -65 -59
-92 -8 -16 -18 -28 -23 -28 -4 0 -8 -9 -8 -20 0 -11 -4 -20 -10 -20 -5 0 -10
-4 -10 -10 0 -5 -14 -32 -30 -60 -17 -28 -28 -56 -25 -61 4 -5 2 -9 -3 -9 -13
0 -53 -76 -45 -84 4 -3 2 -6 -4 -6 -10 0 -26 -35 -24 -52 0 -3 -6 -12 -14 -18
-8 -7 -15 -18 -15 -25 0 -7 -14 -38 -30 -69 -17 -31 -30 -58 -31 -61 0 -2 -11
-30 -24 -60 -14 -31 -25 -62 -25 -70 0 -8 -4 -15 -9 -15 -5 0 -11 -12 -14 -27
-3 -16 -11 -41 -17 -58 -6 -16 -11 -32 -12 -35 0 -3 -4 -11 -10 -17 -6 -7 -8
-20 -4 -28 3 -8 2 -15 -3 -15 -7 0 -24 -43 -20 -52 0 -2 -6 -16 -15 -32 -8
-16 -13 -33 -10 -38 3 -4 0 -8 -5 -8 -6 0 -11 -9 -11 -19 0 -11 -5 -23 -10
-26 -6 -4 -8 -11 -5 -16 4 -5 1 -9 -5 -9 -6 0 -9 -4 -5 -9 3 -5 0 -16 -7 -23
-19 -21 -39 -58 -44 -81 -2 -11 -7 -23 -12 -26 -4 -3 -7 -13 -6 -21 0 -8 2
-25 2 -37 1 -12 10 -24 20 -27 9 -3 28 -16 42 -28 14 -13 32 -24 40 -26 8 -2
16 -8 18 -13 2 -5 10 -9 18 -9 8 0 14 -4 14 -10 0 -5 6 -10 14 -10 7 0 25 -9
40 -21 14 -11 26 -18 26 -14 0 3 6 1 13 -5 30 -26 88 -59 82 -48 -4 7 0 5 8
-4 8 -10 17 -15 20 -11 4 3 7 1 7 -5 0 -7 7 -12 15 -12 8 0 24 -9 35 -20 11
-11 20 -18 20 -15 0 8 119 -55 126 -66 3 -5 9 -7 14 -4 5 3 16 -3 26 -12 10
-10 19 -17 21 -16 5 4 75 -29 106 -50 15 -10 27 -15 27 -11 0 4 8 0 18 -8 9
-8 38 -22 64 -32 27 -10 48 -21 48 -25 0 -4 6 -8 13 -8 18 0 161 -64 165 -74
2 -4 9 -6 17 -3 7 3 16 0 20 -5 3 -6 11 -9 16 -6 5 4 9 2 9 -4 0 -5 10 -13 23
-16 46 -13 132 -49 138 -58 3 -5 9 -8 13 -7 15 4 66 -12 66 -21 0 -6 6 -9 12
-8 21 2 58 -13 58 -24 0 -6 3 -8 6 -4 3 3 28 -3 54 -13 26 -10 51 -16 54 -13
3 4 6 1 6 -5 0 -7 10 -12 23 -12 13 0 28 -5 35 -12 7 -7 12 -9 12 -5 0 4 13 1
29 -8 17 -8 38 -17 48 -18 47 -9 72 -20 67 -28 -3 -5 2 -6 11 -3 8 4 22 1 30
-6 8 -7 15 -10 15 -6 0 3 16 0 35 -8 19 -8 35 -12 35 -9 0 3 8 -1 17 -8 14
-12 16 -12 9 1 -4 9 -2 8 7 -2 8 -10 17 -15 20 -11 4 3 12 1 19 -4 7 -6 21 -9
30 -8 9 2 22 -3 28 -10 5 -7 21 -11 35 -9 14 1 25 -1 25 -5 0 -4 6 -8 13 -9 6
0 30 -6 52 -12 22 -6 47 -13 55 -15 8 -2 15 -4 15 -5 0 -1 11 -3 25 -4 14 -2
35 -8 48 -15 12 -6 27 -9 32 -6 6 3 10 2 10 -4 0 -5 8 -8 18 -6 9 1 23 -2 30
-8 6 -5 12 -6 12 -2 0 4 7 2 15 -5 8 -7 15 -10 15 -7 0 4 19 1 95 -19 11 -2
35 -7 54 -9 18 -3 37 -8 42 -11 9 -5 32 -11 79 -20 14 -2 45 -9 70 -14 25 -6
56 -12 70 -14 14 -3 25 -5 25 -7 0 -2 24 -6 75 -13 19 -2 35 -5 35 -6 0 -1 11
-3 25 -5 40 -5 154 -27 170 -32 14 -5 51 -11 115 -18 17 -1 30 -4 30 -5 0 -1
11 -3 25 -5 14 -1 50 -6 80 -10 30 -3 63 -6 73 -6 9 0 17 -3 17 -7 0 -4 21 -8
48 -9 26 0 65 -3 87 -6 22 -3 67 -8 100 -12 33 -3 76 -8 95 -10 19 -2 56 -6
82 -9 26 -2 52 -7 58 -11 5 -3 10 -1 10 5 0 7 5 8 13 3 13 -9 15 -9 192 -17
220 -11 409 -18 520 -20 61 -1 115 -5 122 -9 6 -4 14 -4 17 1 3 5 35 9 71 10
36 1 70 4 75 7 5 3 11 1 15 -5 4 -6 11 -7 17 -3 7 3 54 7 105 8 51 1 96 5 99
8 4 4 15 2 25 -4 11 -5 19 -6 19 -2 0 4 53 9 118 10 161 3 251 9 258 15 3 4
19 2 35 -2 16 -5 29 -5 29 -1 0 4 17 7 38 6 20 -1 41 0 46 3 5 3 27 6 50 7 23
1 70 6 106 10 36 4 83 9 105 11 22 2 60 7 85 10 25 3 63 7 85 9 71 8 160 22
160 25 0 1 16 3 35 5 19 2 49 6 65 9 17 4 46 9 65 12 19 3 46 8 60 10 14 3 35
7 48 10 12 2 32 6 45 9 12 2 38 7 57 10 45 7 75 13 75 15 0 2 37 10 63 12 12
1 22 5 22 9 0 4 12 7 28 7 24 0 67 8 67 12 0 1 14 4 30 6 17 3 37 7 45 11 13
5 30 10 65 17 6 1 16 5 23 9 6 5 17 5 22 2 6 -3 10 -2 10 3 0 5 6 9 13 10 30
2 72 14 84 24 9 7 13 7 13 -2 0 -9 4 -9 13 -2 15 12 117 43 117 35 0 -3 7 0
15 7 8 7 15 9 15 5 0 -4 6 -3 13 3 6 5 28 13 47 17 19 4 46 12 60 18 14 6 27
11 30 12 47 11 186 61 188 67 2 4 7 6 12 3 4 -3 20 2 36 10 15 7 31 12 36 9 4
-3 8 -1 8 4 0 5 6 9 13 9 14 1 80 26 87 33 3 3 12 6 20 8 8 2 35 13 60 24 25
12 51 20 58 19 6 -1 12 4 12 10 0 7 3 9 7 6 3 -4 11 -3 17 1 6 5 38 19 71 32
33 13 70 30 83 38 12 8 22 11 22 7 0 -3 13 3 29 14 15 11 31 18 35 14 3 -3 6
-1 6 5 0 7 3 12 8 11 18 -3 51 14 45 24 -3 6 -1 7 5 3 6 -3 26 2 45 13 19 11
38 17 41 14 3 -4 6 -2 6 4 0 5 20 18 45 29 25 10 45 22 45 26 0 4 8 8 18 8 10
0 29 10 42 23 14 12 27 21 30 21 11 -3 70 30 70 38 0 5 5 6 10 3 6 -3 10 -1
10 6 0 7 3 9 6 6 4 -4 20 3 35 14 16 11 29 18 29 15 0 -3 9 3 20 14 11 11 27
20 35 20 8 0 15 5 15 10 0 6 7 10 15 10 8 0 15 5 15 11 0 5 5 7 10 4 6 -3 13
1 16 9 3 9 10 14 14 11 4 -3 19 4 33 15 14 11 28 20 32 20 8 0 26 19 47 49 13
19 15 29 6 45 -15 29 -45 56 -53 48 -4 -4 -6 -2 -5 3 5 25 -2 33 -30 31 -16 0
-30 -5 -30 -11 -1 -5 -7 1 -14 15 -8 14 -12 28 -10 32 3 5 1 8 -4 8 -6 0 -13
11 -16 25 -3 13 -10 34 -15 47 -5 13 -9 25 -9 28 0 3 -7 18 -16 34 -8 16 -13
33 -10 38 3 4 0 8 -5 8 -6 0 -10 3 -9 8 2 4 -2 21 -9 37 -69 183 -127 336
-138 360 -7 17 -16 40 -20 53 -3 12 -11 22 -16 22 -6 0 -7 5 -4 10 4 6 -1 22
-10 37 -11 16 -12 23 -4 17 8 -4 4 5 -9 20 -12 16 -22 37 -22 47 0 11 -4 19
-10 19 -5 0 -10 5 -10 11 0 16 -60 133 -72 140 -5 3 -9 10 -9 15 1 18 -11 44
-20 44 -6 0 -8 4 -4 9 3 5 1 12 -4 15 -5 3 -42 59 -82 123 -40 65 -77 120 -81
121 -4 2 -8 8 -8 14 0 5 -6 16 -12 23 -30 33 -38 45 -32 45 3 0 -8 13 -25 29
-17 16 -31 34 -31 41 0 6 -4 8 -10 5 -5 -3 -10 -1 -10 5 0 16 -199 210 -215
210 -15 0 -76 74 -94 114 -12 25 -30 65 -40 89 -11 23 -23 55 -26 70 -4 15
-10 27 -14 27 -4 0 -8 6 -8 13 0 6 -15 58 -32 114 -18 57 -32 104 -31 105 2 2
-5 20 -13 41 -9 20 -13 37 -10 37 3 0 0 6 -6 13 -6 8 -8 17 -4 20 3 4 1 13 -5
20 -7 8 -9 17 -5 20 3 4 1 7 -5 7 -7 0 -11 3 -10 8 2 6 -6 39 -27 122 -1 3 -5
12 -8 20 -10 25 -40 134 -40 148 0 6 -4 12 -9 12 -5 0 -7 4 -4 8 5 8 -6 59
-22 102 -8 23 -10 33 -17 62 -3 15 -9 38 -14 50 -5 13 -9 26 -10 31 0 4 -1 8
-2 10 0 1 -2 9 -4 17 -3 15 -5 25 -25 110 -6 25 -11 51 -12 58 -1 6 -5 12 -9
12 -5 0 -6 6 -3 14 3 8 -1 37 -10 64 -8 28 -12 53 -9 56 4 3 2 6 -3 6 -5 0
-10 8 -10 18 -1 21 -13 80 -21 107 -3 11 -7 29 -8 40 -1 11 -5 28 -9 37 -4 9
-5 22 -1 28 3 5 2 10 -3 10 -5 0 -9 6 -9 13 -3 36 -16 104 -24 120 -6 9 -8 17
-5 17 2 0 -2 24 -10 53 -7 28 -14 64 -14 80 0 15 -4 27 -8 27 -4 0 -8 8 -9 18
-1 9 -2 31 -4 49 -1 18 -6 30 -10 27 -5 -3 -6 1 -3 9 2 7 0 34 -6 58 -6 24
-13 55 -15 69 -3 14 -7 34 -10 46 -3 12 -7 39 -11 60 -3 21 -10 46 -15 55 -4
9 -6 18 -4 21 2 2 0 20 -5 39 -5 19 -12 52 -15 74 -4 22 -8 49 -11 60 -2 11
-6 31 -8 45 -3 14 -7 36 -11 50 -3 14 -7 39 -10 55 -2 17 -7 41 -10 55 -3 14
-8 32 -10 40 -2 8 -4 30 -4 48 -1 18 -4 31 -8 29 -5 -3 -8 9 -9 26 -1 48 -7
91 -13 102 -3 6 -7 21 -8 35 -4 32 -8 58 -16 90 -4 14 -9 39 -11 55 -2 17 -5
30 -6 30 -1 0 -3 14 -5 30 -2 17 -6 44 -10 60 -3 17 -9 48 -11 70 -3 22 -7 49
-10 60 -3 11 -7 34 -10 50 -3 17 -8 37 -11 45 -9 24 -11 70 -3 65 4 -2 13 15
20 38 8 23 20 52 28 65 8 12 11 22 7 22 -4 0 -3 6 2 13 11 14 39 108 35 120
-1 4 2 7 6 7 4 0 9 8 10 18 2 23 10 57 13 57 1 0 3 9 5 20 4 25 9 46 17 65 3
8 8 33 11 55 4 22 9 60 12 85 6 39 30 93 37 81 4 -7 47 10 47 19 0 5 9 11 19
15 26 8 24 72 -4 101 -24 25 -89 60 -126 68 -31 7 -42 36 -53 135 -9 79 -18
137 -23 151 -3 8 -7 26 -9 40 -2 14 -5 39 -8 55 -2 17 -8 50 -14 75 -6 25 -14
65 -17 90 -4 25 -13 70 -21 100 -9 30 -17 66 -20 80 -4 25 -22 93 -32 120 -3
8 -6 22 -8 30 -3 17 -23 87 -32 110 -3 8 -6 17 -6 20 -4 23 -31 100 -42 121
-8 15 -15 35 -17 45 -5 23 -8 30 -66 169 -25 61 -49 112 -53 113 -5 2 -6 7 -3
12 3 5 0 14 -7 22 -7 7 -14 18 -15 23 -2 13 -88 169 -120 220 -60 92 -90 134
-152 210 -75 92 -251 266 -263 259 -4 -3 -8 1 -8 8 0 8 -13 22 -30 31 -16 10
-30 22 -30 28 0 5 -6 9 -14 9 -8 0 -21 8 -28 18 -7 9 -22 23 -33 30 -66 41
-81 52 -95 64 -8 7 -18 12 -22 10 -5 -1 -8 2 -8 7 0 5 -15 16 -32 25 -18 9
-60 32 -93 51 -33 19 -71 39 -85 45 -14 5 -37 17 -52 26 -16 8 -28 13 -28 10
0 -3 -16 2 -35 10 -19 8 -35 11 -35 7 0 -5 -4 -3 -8 4 -4 6 -27 14 -52 18 -25
3 -61 9 -80 12 -19 3 -54 6 -77 6 -24 1 -43 5 -43 9 0 5 -6 6 -12 1 -7 -4 -22
-8 -33 -9 -11 -1 -45 -5 -75 -10 -82 -11 -119 -6 -146 21 -9 8 -19 13 -24 10
-5 -3 -10 -1 -12 3 -6 16 -212 85 -278 94 -14 2 -29 6 -35 9 -16 10 -334 8
-340 -1 -3 -5 -18 -5 -34 0 -16 4 -32 5 -36 2z"/>
</g>
</svg>
